<?xml version="1.0" encoding="UTF-8" standalone="no"?>
<!-- Created with Inkscape (http://www.inkscape.org/) -->

<svg
   width="210mm"
   height="297mm"
   viewBox="0 0 210 297"
   version="1.1"
   id="svg5"
   xmlns="http://www.w3.org/2000/svg"
   xmlns:svg="http://www.w3.org/2000/svg">
  <defs
     id="defs2" />
  <g
     id="layer1">
    <path
       style="fill:#000000;fill-opacity:1;fill-rule:nonzero;stroke:none;stroke-width:0.264583"
       id="path44"
       d="m 99.58026,80.947346 c -2.410704,3.370451 -4.761312,6.878206 -6.290186,10.754485 -0.398767,1.01102 -0.682879,2.063583 -1.024319,3.095373 -0.136069,1.092891 -0.377782,2.177762 -0.408209,3.278669 -0.0828,2.995587 0.663022,5.990917 2.228196,8.552137 1.10971,1.81589 1.57253,2.01197 3.124023,3.34402 0.605914,0.32648 1.173742,0.73658 1.817743,0.97944 3.010602,1.13534 6.375592,0.28834 9.181412,-1.00398 0.82277,-0.37895 1.59511,-0.85896 2.39266,-1.28845 1.81386,-1.13532 3.68084,-2.1899 5.44157,-3.40598 2.03676,-1.40671 4.32721,-3.94948 5.67258,-6.023143 1.29603,-1.99761 1.41448,-2.576084 2.29764,-4.745733 0.87461,-2.648802 1.39146,-5.42594 0.52916,-8.150855 -0.47892,-1.513406 -0.78474,-1.790017 -1.63775,-3.098086 -2.27711,-2.747359 -4.85627,-3.938495 -8.22277,-4.8251 -2.47683,-0.602655 -4.51377,-0.517377 -6.97311,0.02918 -1.56523,0.360574 -3.0909,0.880268 -4.58969,1.454049 0,0 -3.09345,2.437252 -3.09345,2.437252 v 0 c 1.47833,-0.649208 3.04297,-1.127252 4.6007,-1.541558 0.7809,-0.192405 1.34371,-0.355637 2.14481,-0.454403 1.59213,-0.196292 3.18369,-0.07469 4.74951,0.255058 3.31185,0.797168 5.84377,1.894771 8.09785,4.567584 0.83253,1.264367 1.11544,1.50446 1.57687,2.974065 0.83064,2.645539 0.30667,5.342366 -0.5515,7.906594 -0.32769,0.782576 -0.60447,1.588476 -0.98306,2.347735 -0.80023,1.60483 -1.80107,3.098871 -2.97479,4.454391 -0.6024,0.69571 -1.25512,1.34863 -1.93132,1.97286 -0.68363,0.63108 -1.54621,1.07454 -2.143,1.78831 -0.19342,0.23132 0.57738,-0.17408 0.86608,-0.26113 -0.78347,0.43825 -1.54179,0.92481 -2.3504,1.31474 -2.70106,1.30249 -5.98709,2.24958 -8.94645,1.22966 -0.63064,-0.21734 -1.1906,-0.60185 -1.7859,-0.90277 -1.524068,-1.25096 -1.999003,-1.4459 -3.095606,-3.18339 -1.565831,-2.48096 -2.295316,-5.402053 -2.186181,-8.328419 0.04033,-1.081447 0.294447,-2.144275 0.441669,-3.216415 0.348814,-1.020072 0.640736,-2.061405 1.046438,-3.060215 1.587,-3.907103 3.99247,-7.474591 6.59856,-10.763801 0,0 -3.61978,1.517822 -3.61978,1.517822 z" />
    <path
       style="fill:#000000;fill-opacity:1;fill-rule:nonzero;stroke:none;stroke-width:0.264583"
       id="path46"
       d="m 103.05368,112.77199 c -0.55777,4.09326 -0.96358,8.2044 -1.46155,12.3049 -0.81572,6.11864 -1.08382,12.28627 -1.27931,18.44975 -0.093,3.53127 -0.17508,7.06292 -0.22622,10.59506 -0.003,0.2345 -0.005,0.469 -0.008,0.70349 0,0 3.49335,-1.78112 3.49335,-1.78112 v 0 c -0.004,-0.23077 -0.008,-0.46153 -0.0118,-0.69229 -0.0525,-3.49271 -0.0588,-6.98628 0.0219,-10.47869 0.16931,-6.15548 0.46797,-12.31221 1.29698,-18.41986 0.53087,-4.14361 0.97723,-8.30153 1.71171,-12.41595 0,0 -3.53701,1.73471 -3.53701,1.73471 z" />
    <path
       style="fill:#000000;fill-opacity:1;fill-rule:nonzero;stroke:none;stroke-width:0.264583"
       id="path48"
       d="m 102.28203,136.76664 c 3.00891,0.68198 6.07978,0.54767 9.12858,0.3032 4.89363,-0.57504 9.68067,-1.75729 14.42252,-3.06112 0,0 2.99403,-2.30299 2.99403,-2.30299 v 0 c -4.72609,1.35215 -9.5025,2.56013 -14.39572,3.13208 -2.96831,0.23961 -5.97998,0.42269 -8.89756,-0.32681 0,0 -3.25185,2.25564 -3.25185,2.25564 z" />
    <path
       style="fill:#000000;fill-opacity:1;fill-rule:nonzero;stroke:none;stroke-width:0.264583"
       id="path50"
       d="m 103.18321,132.21252 c -2.26245,-1.86867 -4.285898,-4.01134 -6.216973,-6.21501 -1.401569,-1.64079 -2.6456,-3.41213 -3.808264,-5.22826 -0.504973,-0.86213 -0.858944,-1.79167 -1.344179,-2.66387 -0.15023,-0.31045 -0.311467,-0.61407 -0.457568,-0.92651 0,0 -3.44683,1.95204 -3.44683,1.95204 v 0 c 0.15208,0.32008 0.315302,0.6336 0.476062,0.9494 0.499981,0.87282 0.85752,1.8117 1.391357,2.66651 1.211821,1.80938 2.490078,3.58115 3.914706,5.22995 1.962486,2.19866 4.013009,4.31941 6.150012,6.34933 0,0 3.341677,-2.11358 3.341677,-2.11358 z" />
    <path
       style="fill:#000000;fill-opacity:1;fill-rule:nonzero;stroke:none;stroke-width:0.264583"
       id="path52"
       d="m 139.02292,141.15445 c -0.40064,-0.0804 -0.80495,-0.14437 -1.20192,-0.24135 -2.74399,-0.67037 -5.43387,-1.60029 -8.0932,-2.54013 -3.59723,-1.2713 -4.65776,-1.70345 -8.27056,-3.08385 -5.61402,-2.23724 -11.164,-4.6661 -16.50841,-7.49465 -2.81135,-1.48792 -4.07101,-2.27312 -6.766237,-3.86616 -5.029536,-2.96775 -9.661528,-6.5184 -13.979673,-10.43625 -2.553743,-2.42324 -5.046988,-4.915 -7.244945,-7.66864 -0.589323,-0.77303 -1.052769,-1.62951 -1.556634,-2.45848 0,0 -3.419538,1.98922 -3.419538,1.98922 v 0 c 0.530082,0.8338 1.026559,1.69288 1.649044,2.463 2.285164,2.7208 4.839235,5.19189 7.425185,7.62469 4.36848,3.9529 9.006353,7.49022 14.124664,10.43326 2.737107,1.58831 3.989996,2.35288 6.838234,3.84535 5.36739,2.81249 10.92263,5.25572 16.5429,7.51368 5.6859,2.2121 11.36062,4.53029 17.239,6.18697 0,0 3.22209,-2.26666 3.22209,-2.26666 z" />
    <path
       style="fill:#000000;fill-opacity:1;fill-rule:nonzero;stroke:none;stroke-width:0.264583"
       id="path54"
       d="m 72.443381,104.41479 c 5.167014,0.9339 10.257108,2.29942 15.249446,3.92057 1.610071,0.52283 3.201209,1.10226 4.801812,1.65339 9.301181,3.35354 18.185791,7.71638 26.894521,12.36829 5.17055,2.83462 10.01244,6.2175 14.54009,9.98594 2.41693,2.04821 4.60571,4.34176 6.76397,6.65521 1.13912,1.18341 2.1817,2.4622 3.02149,3.87564 0.0724,0.21231 0.91217,1.54068 0.6119,1.64645 -0.10251,0.0361 -0.21734,0.004 -0.32601,0.005 5.12376,-2.79827 3.45464,-1.7207 1.75808,-1.64746 -0.85066,0.0367 -1.6225,-0.11024 -2.45019,-0.28807 -1.32311,-0.30551 -2.61797,-0.72014 -3.91487,-1.11986 0,0 -3.23761,2.21008 -3.23761,2.21008 v 0 c 1.31243,0.38886 2.61653,0.81104 3.94878,1.12839 1.11346,0.27341 2.01576,0.43977 3.16464,0.36409 0.19598,-0.0129 0.40942,0.0347 0.58721,-0.0488 1.31105,-0.61554 2.56096,-1.35367 3.84145,-2.0305 0.0664,-0.10636 0.16305,-0.199 0.19909,-0.31907 0.15856,-0.52817 -0.63113,-1.39557 -0.78226,-1.87261 -0.87431,-1.42851 -1.94685,-2.72058 -3.11988,-3.91454 -2.20653,-2.30192 -4.4319,-4.59469 -6.88975,-6.63297 -4.60236,-3.75745 -9.52647,-7.11656 -14.76526,-9.92977 -8.78125,-4.57827 -17.70255,-8.93044 -27.006317,-12.35657 -1.59158,-0.56193 -3.175034,-1.14742 -4.77474,-1.68579 -4.89187,-1.64632 -9.865812,-3.04147 -14.886953,-4.23282 0,0 -3.228639,2.26524 -3.228639,2.26524 z" />
    <path
       style="fill:#000000;fill-opacity:1;fill-rule:nonzero;stroke:none;stroke-width:0.264583"
       id="path56"
       d="m 74.292419,105.44865 c -2.697244,0.002 -5.302924,-0.79542 -7.83636,-1.64231 -1.328468,-0.50837 -2.777082,-0.87761 -3.946961,-1.72872 -0.600089,-0.43657 -0.722702,-0.66567 -1.186874,-1.23886 -1.269685,-1.879898 -1.618892,-4.094503 -1.863743,-6.299591 -0.197083,-2.276954 -0.191019,-4.564319 -0.188061,-6.847747 0.04299,-2.140739 2.17e-4,-4.277167 -0.190309,-6.409976 -0.244356,-2.327814 -0.815565,-4.593468 -1.621303,-6.785522 -0.624549,-1.588961 -1.414293,-3.093958 -2.373813,-4.503426 0,0 -3.372358,1.984772 -3.372358,1.984772 v 0 c 0.967642,1.364666 1.768597,2.825732 2.365912,4.392668 0.783527,2.16503 1.340178,4.403738 1.564429,6.700473 0.179064,2.125268 0.201848,4.252888 0.166722,6.384877 0.0087,2.292675 0.02278,4.589153 0.230145,6.874256 0.259254,2.278118 0.642008,4.559096 1.936522,6.508986 0.474385,0.59972 0.642102,0.89159 1.258708,1.35576 1.187651,0.89405 2.686862,1.25406 4.053218,1.76064 2.535624,0.85136 5.124669,1.68095 7.816437,1.80971 0,0 3.187689,-2.31599 3.187689,-2.31599 z" />
    <path
       style="fill:#000000;fill-opacity:1;fill-rule:nonzero;stroke:none;stroke-width:0.264583"
       id="path58"
       d="m 51.930617,70.803684 c 2.680745,1.184593 5.166249,2.716919 7.593952,4.346181 3.063414,2.044674 5.776303,4.498454 8.163141,7.293031 1.850557,2.372018 3.27583,5.034052 4.451541,7.793918 0.665234,1.695805 1.140349,3.457877 1.464881,5.248376 0.250307,1.508204 0.425818,3.022949 0.522957,4.54844 0.110326,1.62514 0.103116,3.24913 -0.119748,4.86329 -0.100105,0.61198 -0.204864,1.2231 -0.302622,1.83546 0,0 3.53618,-1.7338 3.53618,-1.7338 v 0 c 0.09193,-0.61152 0.189688,-1.22214 0.276034,-1.8345 0.189762,-1.63904 0.188979,-3.284161 0.08515,-4.930457 -0.108307,-1.538327 -0.281914,-3.069452 -0.545526,-4.589539 -0.355632,-1.809081 -0.838763,-3.594531 -1.555975,-5.297072 -1.226529,-2.777027 -2.677684,-5.468432 -4.546348,-7.871447 -2.417855,-2.812613 -5.163699,-5.279813 -8.238488,-7.365386 -2.401376,-1.64602 -4.85767,-3.194629 -7.484009,-4.461669 0,0 -3.301124,2.155174 -3.301124,2.155174 z" />
    <path
       style="fill:#000000;fill-opacity:1;fill-rule:nonzero;stroke:none;stroke-width:0.264583"
       id="path66"
       d="m 52.760795,72.135319 c 1.587547,1.499137 3.057919,3.125502 4.469407,4.79067 1.140807,1.429663 2.232189,2.901982 3.253817,4.419359 0.467072,0.692875 0.902269,1.423072 1.224971,2.195926 0.111096,0.367434 0.04604,0.185676 0.195942,0.544988 0,0 3.462417,-1.939652 3.462417,-1.939652 v 0 c -0.140772,-0.339886 -0.07207,-0.158081 -0.201946,-0.546976 -0.348189,-0.79004 -0.802904,-1.537279 -1.296307,-2.243915 -1.056908,-1.512308 -2.175944,-2.98245 -3.335571,-4.417269 -1.424336,-1.673455 -2.902759,-3.302138 -4.414313,-4.896805 0,0 -3.358417,2.093674 -3.358417,2.093674 z" />
    <path
       style="fill:#000000;fill-opacity:1;fill-rule:nonzero;stroke:none;stroke-width:0.264583"
       id="path68"
       d="m 57.529145,80.990825 c 1.077978,0.995244 2.12571,2.042742 3.026944,3.203062 0.1046,0.131011 0.209201,0.262022 0.313798,0.393031 0,0 3.382846,-2.026759 3.382846,-2.026759 v 0 c -0.106455,-0.127124 -0.212912,-0.254246 -0.319367,-0.38137 -0.931641,-1.166805 -2.018835,-2.20017 -3.045804,-3.281638 0,0 -3.358417,2.093674 -3.358417,2.093674 z" />
    <path
       style="fill:#000000;fill-opacity:1;fill-rule:nonzero;stroke:none;stroke-width:0.264583"
       id="path70"
       d="m 57.605551,80.105151 c 0.823325,0.866426 0.411427,0.415687 1.233329,1.354376 0,0 3.3328,-2.009357 3.3328,-2.009357 v 0 c -0.814009,-0.952535 -0.414523,-0.49113 -1.197563,-1.384993 0,0 -3.368566,2.039974 -3.368566,2.039974 z" />
    <path
       style="fill:#000000;fill-opacity:1;fill-rule:nonzero;stroke:none;stroke-width:0.264583"
       id="path72"
       d="m 61.155966,78.392419 c 0.700484,1.296516 1.182338,2.689428 1.7341,4.050654 0,0 3.416784,-1.914136 3.416784,-1.914136 v 0 c -0.57848,-1.355611 -1.093917,-2.737964 -1.715958,-4.075509 0,0 -3.434926,1.938991 -3.434926,1.938991 z" />
    <path
       style="fill:#000000;fill-opacity:1;fill-rule:nonzero;stroke:none;stroke-width:0.264583"
       id="path74"
       d="m 140.19689,142.12871 c -1.3685,-0.54378 -2.73061,-1.10247 -4.07524,-1.70277 0,0 -3.22239,2.14076 -3.22239,2.14076 v 0 c 1.33552,0.59434 2.69385,1.13562 4.01563,1.76077 0,0 3.282,-2.19876 3.282,-2.19876 z" />
    <path
       style="fill:#000000;fill-opacity:1;fill-rule:nonzero;stroke:none;stroke-width:0.264583"
       id="path76"
       d="m 99.321068,154.14684 c -2.591054,3.12023 -5.294764,6.14654 -7.928083,9.23229 -2.006584,2.28867 -3.845928,4.71387 -5.729301,7.10251 0,0 3.488301,-1.49568 3.488301,-1.49568 v 0 c 1.836664,-2.38721 3.659196,-4.78742 5.650355,-7.05026 2.685976,-3.1345 5.4459,-6.20283 8.13866,-9.33073 0,0 -3.619932,1.54187 -3.619932,1.54187 z" />
    <path
       style="fill:#000000;fill-opacity:1;fill-rule:nonzero;stroke:none;stroke-width:0.264583"
       id="path78"
       d="m 100.77282,154.95586 c 2.53508,2.64725 4.89786,5.43978 7.15217,8.32788 1.66858,2.14632 3.26811,4.35565 4.62867,6.71166 0,0 3.35934,-1.94644 3.35934,-1.94644 v 0 c -1.44136,-2.32936 -3.09792,-4.51763 -4.78162,-6.67578 -2.24254,-2.89017 -4.59852,-5.68064 -6.97603,-8.45929 0,0 -3.38253,2.04197 -3.38253,2.04197 z" />
  </g>
</svg>
