<?xml version="1.0" encoding="UTF-8" standalone="no"?>
<!-- Created with Inkscape (http://www.inkscape.org/) -->

<svg
   width="210mm"
   height="297mm"
   viewBox="0 0 210 297"
   version="1.1"
   id="svg5"
   inkscape:version="1.1 (c68e22c387, 2021-05-23)"
   sodipodi:docname="terrain.svg"
   xmlns:inkscape="http://www.inkscape.org/namespaces/inkscape"
   xmlns:sodipodi="http://sodipodi.sourceforge.net/DTD/sodipodi-0.dtd"
   xmlns="http://www.w3.org/2000/svg"
   xmlns:svg="http://www.w3.org/2000/svg">
  <sodipodi:namedview
     id="namedview7"
     pagecolor="#ffffff"
     bordercolor="#666666"
     borderopacity="1.0"
     inkscape:pageshadow="2"
     inkscape:pageopacity="0.0"
     inkscape:pagecheckerboard="0"
     inkscape:document-units="mm"
     showgrid="false"
     inkscape:zoom="0.77682379"
     inkscape:cx="397.12996"
     inkscape:cy="561.90349"
     inkscape:window-width="1858"
     inkscape:window-height="1057"
     inkscape:window-x="1912"
     inkscape:window-y="-8"
     inkscape:window-maximized="1"
     inkscape:current-layer="layer1" />
  <defs
     id="defs2" />
  <g
     inkscape:label="Layer 1"
     inkscape:groupmode="layer"
     id="layer1">
    <path
       style="fill:#000000;fill-opacity:1;fill-rule:nonzero;stroke:none;stroke-width:0.264583"
       id="path42"
       d="m 50.820243,87.386289 c 10.87425,0.991888 21.811643,0.798655 32.717075,0.732385 17.990412,-0.261213 35.981082,-0.475636 53.973352,-0.535374 0.62464,-2.65e-4 8.36943,-0.02777 9.62495,0.04791 1.72759,0.104135 4.9658,0.534837 6.45856,1.701406 0.34571,0.270163 0.55607,0.678812 0.83411,1.01822 0.16443,0.51781 0.38227,1.021603 0.4933,1.553429 0.34428,1.649024 0.44524,3.894482 0.52648,5.51751 0.21521,4.299795 0.261,8.605365 0.32695,12.909175 0.11839,10.19502 0.27751,20.38815 0.18358,30.58386 -0.0721,5.90363 -0.17396,11.80684 -0.26117,17.71026 -0.0958,2.93929 0.0246,5.87671 0.13855,8.81327 0.0479,1.6556 0.24063,3.30233 0.35778,4.95386 0.0236,1.18546 0.13403,2.36041 0.25515,3.53891 -0.039,0.3066 0.24142,1.3329 0.0691,1.587 -0.12,0.17699 -0.69896,0.49209 -0.53191,0.35861 2.48969,-1.98941 2.88766,-1.63773 -0.679,-1.03932 -1.32428,0.0888 -2.64626,0.22395 -3.97283,0.26651 -6.8139,0.21859 -13.65008,-0.17005 -20.45647,-0.41697 -14.12893,-0.51256 -3.45281,-0.11549 -17.84729,-0.65761 -13.361382,-0.48455 -26.715929,-1.12661 -40.072284,-1.72831 -3.756443,-0.16935 -7.513222,-0.33136 -11.273318,-0.38431 -1.288275,-0.0202 -2.576688,-0.0151 -3.865055,-0.0145 -0.833845,-0.0175 -1.670198,0.0362 -2.502612,-0.0221 -0.09591,-0.0384 -0.205639,-0.0524 -0.287715,-0.11518 -0.580793,-0.44391 -0.785255,-1.63011 -0.946785,-2.22537 -0.652529,-2.40464 -0.69147,-2.7695 -1.270686,-5.43073 -1.498364,-7.80592 -2.505191,-15.69935 -3.311858,-23.60372 -0.674595,-7.60011 -1.149056,-15.21911 -1.52182,-22.83983 -0.232053,-5.73958 -0.390363,-11.4861 -0.289975,-17.23039 -0.05502,-3.41425 0.484116,-6.756162 1.473237,-10.011421 0.384164,-1.431414 1.19552,-2.680867 1.735005,-4.045445 0.294034,-0.483118 0.459253,-1.027983 0.741574,-1.514856 0,0 -3.612729,1.626437 -3.612729,1.626437 v 0 c -0.242528,0.513341 -0.479597,1.029305 -0.717079,1.544976 -0.563539,1.338077 -1.254533,2.624037 -1.626809,4.038687 -0.933329,3.296158 -1.41256,6.617762 -1.326364,10.055442 -0.0231,5.73271 0.155035,11.46578 0.415379,17.19211 0.421558,7.61669 0.92174,15.23151 1.576004,22.83174 0.809041,7.92469 1.911263,15.8198 3.261117,23.67064 0.30662,1.6257 0.712719,3.88396 1.092091,5.55795 0.227418,1.00348 0.42236,2.22776 1.38865,2.79004 0.838975,0.12685 1.69603,0.0233 2.542074,0.05 1.304428,-0.009 2.608856,-0.0185 3.913294,-0.0257 3.850132,7.9e-4 7.699835,0.0707 11.548573,0.17189 13.510437,0.37356 27.016961,0.882 40.522371,1.40285 7.18334,0.28754 10.60655,0.4168 17.74189,0.73261 6.69313,0.29624 13.40748,0.75713 20.11136,0.70695 1.29182,-0.01 2.58174,-0.10078 3.8726,-0.15117 3.82888,-0.46491 2.74569,-0.041 7.26625,-2.68869 0.22119,-0.12956 0.33988,-0.39731 0.43098,-0.63692 0.13046,-0.34315 -0.14215,-1.24777 -0.10254,-1.62439 -0.12542,-1.17454 -0.20737,-2.34866 -0.25318,-3.52907 -0.14622,-1.63808 -0.34405,-3.27308 -0.39904,-4.91788 -0.15906,-2.91352 -0.27983,-5.8277 -0.22389,-8.74669 -0.01,-5.86259 0.0149,-11.72515 0.0182,-17.58774 -0.017,-10.19066 -0.21093,-20.37934 -0.22174,-30.57001 -0.0255,-4.33512 -0.0325,-8.67281 -0.1708,-13.006327 -0.0483,-1.512112 -0.11557,-4.102907 -0.42527,-5.678373 -0.1144,-0.581959 -0.35705,-1.131184 -0.53557,-1.696779 -0.31248,-0.380973 -0.54797,-0.841105 -0.93745,-1.142923 -0.79724,-0.617815 -2.82856,-1.183312 -3.66274,-1.332489 -4.30234,-0.769382 -8.67917,-0.07178 -13.00867,-0.213059 -18.04493,0.282237 -36.0905,0.552686 -54.137488,0.657683 -10.651429,-0.02328 -21.367598,0.148842 -31.952937,-1.226486 0,0 -3.204514,2.267873 -3.204514,2.267873 z" />
  </g>
</svg>
